<svg xmlns="http://www.w3.org/2000/svg" viewBox="0 0 200 200" fill="none" shape-rendering="auto"><metadata xmlns:rdf="http://www.w3.org/1999/02/22-rdf-syntax-ns#" xmlns:xsi="http://www.w3.org/2001/XMLSchema-instance" xmlns:dc="http://purl.org/dc/elements/1.1/" xmlns:dcterms="http://purl.org/dc/terms/"><rdf:RDF><rdf:Description><dc:title>Fun Emoji Set</dc:title><dc:creator>Davis Uche</dc:creator><dc:source xsi:type="dcterms:URI">https://www.figma.com/community/file/968125295144990435</dc:source><dcterms:license xsi:type="dcterms:URI">https://creativecommons.org/licenses/by/4.0/</dcterms:license><dc:rights>Remix of „Fun Emoji Set” (https://www.figma.com/community/file/968125295144990435) by „Davis Uche”, licensed under „CC BY 4.0” (https://creativecommons.org/licenses/by/4.0/)</dc:rights></rdf:Description></rdf:RDF></metadata><mask id="viewboxMask"><rect width="200" height="200" rx="24" ry="24" x="0" y="0" fill="#fff" /></mask><g mask="url(#viewboxMask)"><rect fill="#f5b50a" width="200" height="200" x="0" y="0" /><g transform="matrix(1.5625 0 0 1.5625 37.5 110.94)"><path d="M40.3 36c-.35 0-.68-.15-.92-.4a1.43 1.43 0 0 1-.38-.98c0-.37.14-.72.38-.98s.57-.4.91-.4c3.77 0 5.99-1.38 6.1-3.75.1-2.73-2.52-6.05-6.22-6.43a1.26 1.26 0 0 1-.84-.49 1.5 1.5 0 0 1 .08-1.88c.23-.25.52-.4.84-.44 3.66-.25 6.11-3.25 6.04-5.82 0-2.3-2.3-3.67-5.96-3.67-.27-.1-.5-.28-.67-.53a1.53 1.53 0 0 1 0-1.71c.16-.25.4-.43.67-.53 6.17 0 8.45 3.28 8.55 6.35a8.98 8.98 0 0 1-1.23 4.26 8.22 8.22 0 0 1-3.06 3.02 8.91 8.91 0 0 1 3.18 3.3A9.7 9.7 0 0 1 49 29.48C48.84 32.7 46.48 36 40.3 36Z" fill="#000"/><g fill-rule="evenodd" clip-rule="evenodd"><path d="M107.8 10.27c-.09.5-.2.98-.36 1.46-2.88 10.4-16.3 16.3-23.8 19.9-6.09-6.32-17.4-17.25-15.4-28.6.25-1.51.78-2.96 1.58-4.25 3.97-6.6 13.73-7.44 19.41.96 9.68-6.95 20.37.34 18.57 10.53Z" fill="#CE0F0F"/><path opacity=".2" d="M107.8 10.27c-.09.5-.2.98-.36 1.46-4.52 8.33-15.82 13.3-22.4 16.5C78.87 21.98 67.61 11.1 69.6-.32c0-.29.12-.57.2-.85 3.96-6.58 13.73-7.43 19.4.97 9.7-7.01 20.39.28 18.6 10.47Z" fill="#fff"/></g></g><g transform="matrix(1.5625 0 0 1.5625 31.25 59.38)"><path d="M75.76 21.94c-2.9.04-5.72-.89-8.04-2.63a13.47 13.47 0 0 1-4.85-7.03 1.75 1.75 0 0 1 .49-1.92 1.7 1.7 0 0 1 2.76.9c.6 2.12 1.88 3.98 3.62 5.29a9.84 9.84 0 0 0 6.04 1.98c2.17.01 4.29-.68 6.03-2a10.17 10.17 0 0 0 3.65-5.26c.15-.42.46-.75.85-.95a1.68 1.68 0 0 1 2.24.7c.21.38.27.83.17 1.26a13.48 13.48 0 0 1-4.87 7.04 13.17 13.17 0 0 1-8.08 2.62ZM13.76 21.94c-2.9.03-5.73-.9-8.06-2.65a13.54 13.54 0 0 1-4.85-7.06 1.78 1.78 0 0 1 .51-1.88 1.67 1.67 0 0 1 2.4.22c.15.17.25.38.32.6.62 2.1 1.9 3.96 3.64 5.28a9.93 9.93 0 0 0 6.02 2c2.18.03 4.3-.67 6.06-1.99a10.22 10.22 0 0 0 3.66-5.3 1.68 1.68 0 0 1 3.08-.25c.21.4.27.85.17 1.27a13.57 13.57 0 0 1-4.87 7.1 13.19 13.19 0 0 1-8.08 2.65Z" fill="#000"/></g></g></svg>